<svg id="Illustrations" xmlns="http://www.w3.org/2000/svg" viewBox="0 0 321 279.9"><defs><style>.cls-1,.cls-5{fill:#e5eff9;}.cls-10,.cls-11,.cls-15,.cls-2,.cls-6{fill:none;}.cls-12,.cls-2,.cls-3,.cls-4,.cls-5{stroke:#0467c6;}.cls-10,.cls-11,.cls-12,.cls-2,.cls-3,.cls-4,.cls-5,.cls-6,.cls-7,.cls-8,.cls-9{stroke-linecap:round;stroke-linejoin:round;stroke-width:2px;}.cls-14,.cls-3{fill:#9bc2e8;}.cls-4{fill:#3685d1;}.cls-6,.cls-7,.cls-8,.cls-9{stroke:#d9d9d9;}.cls-7{fill:#e5e5e5;}.cls-12,.cls-13,.cls-8{fill:#fff;}.cls-9{fill:#f0f0f0;}.cls-10{stroke:#333;opacity:0.15;}.cls-11{stroke:#fff;}</style></defs><title>How to get started - Identity</title><rect class="cls-1" x="-0.54" y="147.73" width="97.16" height="2.06" transform="translate(-55.25 31.43) rotate(-23.46)"/><rect class="cls-1" x="3.09" y="156.08" width="97.16" height="2.06" transform="translate(-58.28 33.56) rotate(-23.46)"/><rect class="cls-1" x="6.72" y="164.44" width="97.16" height="2.06" transform="translate(-61.31 35.69) rotate(-23.46)"/><rect class="cls-1" x="10.34" y="172.79" width="97.16" height="2.06" transform="translate(-64.33 37.83) rotate(-23.46)"/><rect class="cls-1" x="13.97" y="181.15" width="97.16" height="2.06" transform="translate(-67.36 39.96) rotate(-23.46)"/><rect class="cls-1" x="17.59" y="189.5" width="97.16" height="2.06" transform="translate(-70.38 42.1) rotate(-23.46)"/><rect class="cls-1" x="21.22" y="197.86" width="97.16" height="2.06" transform="translate(-73.41 44.23) rotate(-23.46)"/><rect class="cls-1" x="24.85" y="206.21" width="97.16" height="2.06" transform="translate(-76.44 46.36) rotate(-23.46)"/><rect class="cls-1" x="28.47" y="214.56" width="97.16" height="2.06" transform="translate(-79.46 48.5) rotate(-23.46)"/><rect class="cls-1" x="32.1" y="222.92" width="97.16" height="2.06" transform="translate(-82.49 50.63) rotate(-23.46)"/><rect class="cls-1" x="35.72" y="231.27" width="97.16" height="2.06" transform="translate(-85.52 52.77) rotate(-23.46)"/><rect class="cls-1" x="39.35" y="239.63" width="97.16" height="2.06" transform="translate(-88.54 54.9) rotate(-23.46)"/><rect class="cls-1" x="42.97" y="247.98" width="97.16" height="2.06" transform="translate(-91.57 57.04) rotate(-23.46)"/><line class="cls-2" x1="1.21" y1="168.11" x2="6.51" y2="165.81"/><line class="cls-2" x1="4.63" y1="175.97" x2="9.92" y2="173.67"/><line class="cls-2" x1="8.04" y1="183.83" x2="13.33" y2="181.54"/><line class="cls-2" x1="11.45" y1="191.7" x2="16.74" y2="189.4"/><line class="cls-2" x1="14.86" y1="199.56" x2="20.16" y2="197.26"/><line class="cls-2" x1="18.28" y1="207.42" x2="23.57" y2="205.12"/><line class="cls-2" x1="21.69" y1="215.28" x2="26.98" y2="212.99"/><line class="cls-2" x1="25.1" y1="223.15" x2="30.39" y2="220.85"/><line class="cls-2" x1="28.51" y1="231.01" x2="33.81" y2="228.71"/><line class="cls-2" x1="31.93" y1="238.87" x2="37.22" y2="236.57"/><line class="cls-2" x1="35.34" y1="246.73" x2="40.63" y2="244.44"/><line class="cls-2" x1="38.75" y1="254.6" x2="44.04" y2="252.3"/><line class="cls-2" x1="42.16" y1="262.46" x2="47.45" y2="260.16"/><line class="cls-2" x1="45.57" y1="270.32" x2="50.87" y2="268.02"/><path class="cls-3" d="M126.3,198.31h3.78a1.25,1.25,0,0,1,1.25,1.25v13.93a1.25,1.25,0,0,1-1.25,1.25H126.3a0,0,0,0,1,0,0V198.31A0,0,0,0,1,126.3,198.31Z" transform="translate(-71.57 68.36) rotate(-23.46)"/><path class="cls-4" d="M134.09,216.26h3.78a1.25,1.25,0,0,1,1.25,1.25v13.93a1.25,1.25,0,0,1-1.25,1.25h-3.78a0,0,0,0,1,0,0V216.26a0,0,0,0,1,0,0Z" transform="matrix(0.92, -0.4, 0.4, 0.92, -78.08, 72.94)"/><rect class="cls-2" x="21.83" y="133.97" width="97.16" height="132.63" rx="4.95" ry="4.95" transform="translate(-73.92 44.59) rotate(-23.46)"/><rect class="cls-2" x="244.37" y="215.88" width="71.51" height="41.73" rx="5.1" ry="5.1" transform="translate(-53.4 84.18) rotate(-15.62)"/><rect class="cls-5" x="252.6" y="229.25" width="22.43" height="25.21" transform="translate(-55.37 79.96) rotate(-15.62)"/><path class="cls-3" d="M274.15,252.05l-.95-3.39a3.54,3.54,0,0,0-4.48-2.16l-6.38,1.78c-1.93.54-3.52,2.49-3,4.22l1,3.44Z"/><ellipse class="cls-3" cx="263.03" cy="239.52" rx="5.39" ry="5.34" transform="translate(-54.78 79.67) rotate(-15.62)"/><line class="cls-2" x1="280.88" y1="231.54" x2="301.57" y2="225.76"/><line class="cls-2" x1="282.55" y1="237.82" x2="289.92" y2="235.76"/><line class="cls-2" x1="293.8" y1="234.68" x2="298.99" y2="233.23"/><rect class="cls-1" x="277.61" y="220.08" width="27.24" height="3.67" rx="0.97" ry="0.97" transform="translate(-48.99 86.6) rotate(-15.62)"/><path class="cls-6" d="M211.66,233l-7.74-4.6a6,6,0,0,0-8.27,2.1h0a6,6,0,0,0,2.1,8.27l13.56,8.07a4.45,4.45,0,0,0,6.11-1.55h0a4.45,4.45,0,0,0-1.55-6.11l-11.69-7a2.5,2.5,0,0,0-3.42.87h0a2.5,2.5,0,0,0,.87,3.42l9.21,5.48"/><path class="cls-7" d="M308.17,136.6l.93-1.61a2.78,2.78,0,0,1,3.8-1h0a2.78,2.78,0,0,1,1,3.8l-.93,1.61"/><polyline class="cls-6" points="311.88 144.04 315 145.84 306.16 161.14"/><rect class="cls-8" x="291.53" y="134.01" width="8.09" height="60.42" transform="translate(121.67 -125.76) rotate(29.99)"/><rect class="cls-9" x="300.62" y="136.44" width="8.09" height="24.07" transform="translate(115.01 -132.41) rotate(29.99)"/><polygon class="cls-8" points="283.99 192.41 276.15 197.89 276.98 188.36 283.99 192.41"/><line class="cls-6" x1="276.15" y1="197.89" x2="275.38" y2="199.22"/><path class="cls-6" d="M174.53,33.42c-3.54,4.68-12.14,19.17-31.2,15.77-17.44-3.1-18.38-16.61-33.36-10.48"/><path class="cls-6" d="M117.81,5.33s12.43-10,21.43.39-2,30.57,15,32.48,30.22-15.94,51.22-9.13,23.49,28.58,38.79,24.52-.4-36,16.49-38c12.05-1.42,19.75,13.91,23.18,22.82"/><path class="cls-8" d="M98.8,37.32c-1.84-3-11,1.23-11.29,3.9-.22,2.44,2.72,5.57,6,5.61,2.65,0,9.52-3.24,9.52-3.24l7.61-3.48-1.25-2.73-6.53,3-2.1,1a.73.73,0,0,1-1-.7A6.28,6.28,0,0,0,98.8,37.32Z"/><rect class="cls-9" x="105.26" y="36.68" width="3" height="7.05" transform="translate(98.9 -73.61) rotate(65.41)"/><path class="cls-8" d="M113.51,15.82c1.69,3.12-6.61,8.94-9,7.8-2.22-1-3.45-5.15-1.86-8,1.31-2.31,7.59-6.61,7.59-6.61L117,4.22l1.73,2.45-5.87,4.15L111,12.15a.73.73,0,0,0,.11,1.22A6.28,6.28,0,0,1,113.51,15.82Z"/><rect class="cls-9" x="113.51" y="3.96" width="3" height="7.05" transform="translate(175.31 105.71) rotate(-125.27)"/><rect class="cls-8" x="273.4" y="37.17" width="38.54" height="63.65" rx="2.82" ry="2.82" transform="translate(-7.84 79.47) rotate(-15.26)"/><rect class="cls-9" x="277.12" y="42.77" width="28.22" height="41.87" transform="matrix(0.96, -0.26, 0.26, 0.96, -6.5, 78.91)"/><circle class="cls-9" cx="298.95" cy="92" r="3.7" transform="translate(-13.67 81.94) rotate(-15.26)"/><path class="cls-10" d="M259.09,83.34V203.21a5.94,5.94,0,0,1-5.94,5.94H75.74a5.94,5.94,0,0,1-5.94-5.94V100"/><line class="cls-10" x1="69.8" y1="96" x2="69.8" y2="83.34"/><rect class="cls-1" x="69.8" y="75.4" width="189.28" height="131.74" rx="5.94" ry="5.94"/><path class="cls-11" d="M77.74,207.15a5.94,5.94,0,0,1-5.94-5.94V81.34a5.94,5.94,0,0,1,5.94-5.94"/><path class="cls-11" d="M75.74,207.15a5.94,5.94,0,0,1-5.94-5.94V81.34a5.94,5.94,0,0,1,5.94-5.94"/><path class="cls-2" d="M69.8,94V81.34a5.94,5.94,0,0,1,5.94-5.94H253.15a5.94,5.94,0,0,1,5.94,5.94V201.21a5.94,5.94,0,0,1-5.94,5.94H75.74a5.94,5.94,0,0,1-5.94-5.94V98"/><circle class="cls-12" cx="249.84" cy="141.28" r="4.22"/><line class="cls-2" x1="77.57" y1="134.02" x2="77.57" y2="148.53"/><rect class="cls-13" x="85.94" y="82.81" width="154.63" height="116.93" rx="2.63" ry="2.63"/><path class="cls-14" d="M240.57,105.62V85.44a2.63,2.63,0,0,0-2.63-2.63H88.57a2.63,2.63,0,0,0-2.63,2.63v20.17Z"/><line class="cls-2" x1="86.37" y1="105.62" x2="239.54" y2="105.62"/><circle class="cls-12" cx="98.2" cy="94.71" r="3.29"/><circle class="cls-12" cx="111.25" cy="94.71" r="3.29"/><circle class="cls-12" cx="124.3" cy="94.71" r="3.29"/><rect class="cls-2" x="85.94" y="82.81" width="154.63" height="116.93" rx="2.63" ry="2.63"/><line class="cls-12" x1="172.54" y1="134.63" x2="203.16" y2="134.63"/><line class="cls-12" x1="172.54" y1="143.41" x2="203.16" y2="143.41"/><rect class="cls-1" x="163.22" y="120.05" width="58.8" height="5.91" rx="1.15" ry="1.15"/><line class="cls-12" x1="173.94" y1="172.82" x2="204.56" y2="172.82"/><rect class="cls-1" x="163.22" y="132.68" width="3.89" height="3.89" rx="0.58" ry="0.58"/><rect class="cls-1" x="163.22" y="141.46" width="3.89" height="3.89" rx="0.58" ry="0.58"/><rect class="cls-1" x="163.22" y="170.87" width="3.89" height="3.89" rx="0.58" ry="0.58"/><rect class="cls-1" x="163.22" y="179.65" width="3.89" height="3.89" rx="0.58" ry="0.58"/><line class="cls-12" x1="173.94" y1="181.6" x2="204.56" y2="181.6"/><rect class="cls-1" x="163.22" y="158.24" width="58.8" height="5.91" rx="1.15" ry="1.15"/><path class="cls-3" d="M129.36,156.49H116.14c-4.16,0-7.93,2.7-7.93,7.52v6.25a80.72,80.72,0,0,0,14.19,9.8,95.45,95.45,0,0,0,14.19-10v-6C136.59,159.69,133.93,156.49,129.36,156.49Z"/><line class="cls-3" x1="132.22" y1="173.58" x2="132.22" y2="165.06"/><ellipse class="cls-3" cx="122.37" cy="144.31" rx="8.74" ry="8.72"/><line class="cls-3" x1="112.57" y1="165.06" x2="112.57" y2="173.78"/><path class="cls-2" d="M144.94,158.41c0,7.74-19.27,19.95-22.54,21.65-3.2-1.63-22.55-13-22.55-22.94V134c8.45-.72,18.49-5.91,22.55-9.56,4,3.61,14.08,8.9,22.54,9.57Z"/><circle class="cls-12" cx="140.5" cy="170.2" r="9.86"/><polyline class="cls-2" points="136.89 171.21 139.75 174.43 145.58 167.45"/><path class="cls-15" d="M144.94,158.41c0,7.74-19.27,19.95-22.54,21.65-3.2-1.63-22.55-13-22.55-22.94V134c8.45-.72,18.49-5.91,22.55-9.56,4,3.61,14.08,8.9,22.54,9.57Z"/></svg>