<svg id="Layer_3" enable-background="new 0 0 64 64" height="512" viewBox="0 0 64 64" width="512" xmlns="http://www.w3.org/2000/svg"><path d="m26 30v-6h-22c-1.105 0-2 .895-2 2v12c0 1.105.895 2 2 2h48c1.105 0 2-.895 2-2v-8z" fill="#fcd770"/><path d="m40 41.46v4.54c0 2.21-1.79 4-4 4h-16c-2.21 0-4-1.79-4-4v-4.54c.61-.35 1.11-.85 1.46-1.46h21.08c.35.61.85 1.11 1.46 1.46z" fill="#ffeaa7"/><path d="m54 38v3l-3.07 16.12c-.54 2.83-3.01 4.88-5.9 4.88h-34.06c-2.89 0-5.36-2.05-5.9-4.88l-3.07-16.12v-3c0 1.1.9 2 2 2h6.54c.35.61.85 1.11 1.46 1.46v5.54c0 3.87 3.13 7 7 7h18c3.87 0 7-3.13 7-7v-5.54c.61-.35 1.11-.85 1.46-1.46h6.54c1.1 0 2-.9 2-2z" fill="#ffeaa7"/><path d="m44 41.46v5.54c0 3.87-3.13 7-7 7h-18c-3.87 0-7-3.13-7-7v-5.54c.59.34 1.27.54 2 .54s1.41-.2 2-.54v4.54c0 2.21 1.79 4 4 4h16c2.21 0 4-1.79 4-4v-4.54c.59.34 1.27.54 2 .54s1.41-.2 2-.54z" fill="#aab2bd"/><path d="m50 36h-44v-8h20v2h24z" fill="#e6e9ed"/><path d="m16 41.46c-.59.34-1.27.54-2 .54s-1.41-.2-2-.54c-.61-.35-1.11-.85-1.46-1.46-.34-.59-.54-1.27-.54-2s.2-1.41.54-2c.69-1.2 1.98-2 3.46-2s2.77.8 3.46 2c.34.59.54 1.27.54 2s-.2 1.41-.54 2c-.35.61-.85 1.11-1.46 1.46z" fill="#838f9b"/><path d="m44 41.46c-.59.34-1.27.54-2 .54s-1.41-.2-2-.54c-.61-.35-1.11-.85-1.46-1.46-.34-.59-.54-1.27-.54-2s.2-1.41.54-2c.69-1.2 1.98-2 3.46-2s2.77.8 3.46 2c.34.59.54 1.27.54 2s-.2 1.41-.54 2c-.35.61-.85 1.11-1.46 1.46z" fill="#838f9b"/><g fill="#b4dd7f"><path d="m56 2h6v28h-6z"/><path d="m52 6v24h-2-4v-24z"/><path d="m36 10h6v20h-6z"/></g><path d="m29.38 5.17c-.24-.33-.38-.73-.38-1.17 0-1.1.9-2 2-2s2 .9 2 2-.9 2-2 2c-.66 0-1.26-.33-1.62-.83z" fill="#ff826e"/><path d="m32 14v16h-6v-2-4-10z" fill="#b4dd7f"/><path d="m21.62 10.83c.24.33.38.73.38 1.17 0 1.1-.9 2-2 2s-2-.9-2-2c0-.41.12-.79.33-1.11.37-.53.98-.89 1.67-.89.66 0 1.26.33 1.62.83z" fill="#ff826e"/><path d="m12.67 7.11c-.37.53-.98.89-1.67.89-.46 0-.89-.16-1.23-.43-.47-.36-.77-.93-.77-1.57 0-1.1.9-2 2-2s2 .9 2 2c0 .41-.12.79-.33 1.11z" fill="#ff826e"/><path d="m5.22 13.42c.47.36.78.94.78 1.58 0 1.1-.9 2-2 2s-2-.9-2-2 .9-2 2-2c.46 0 .88.15 1.22.42z" fill="#ff826e"/><path d="m63 1h-8v28h-2v-24h-8v24h-2v-20h-8v20h-2v-16h-8v10h-21c-1.654 0-3 1.346-3 3v12 3l3.089 16.311c.628 3.296 3.519 5.689 6.876 5.689h34.07c3.356 0 6.248-2.393 6.876-5.689l3.071-16.123.018-3.188v-7h8zm-16 6h4v22h-4zm-10 4h4v18h-4zm12 20v4h-3.026c-.914-1.207-2.348-2-3.974-2s-3.061.793-3.974 2h-20.052c-.914-1.207-2.348-2-3.974-2s-3.061.793-3.974 2h-3.026v-6h18v2zm-30.101 6h18.202c-.066.323-.101.658-.101 1s.035.677.101 1h-18.202c.066-.323.101-.658.101-1s-.035-.677-.101-1zm-.925 4h20.051c.279.369.606.695.974.974v4.029c.001 1.653-1.343 2.997-2.995 2.997h-16.008c-1.652 0-2.996-1.344-2.996-2.996v-4.029c.369-.28.695-.606.974-.975zm-3.974 0c-1.654 0-3-1.346-3-3s1.346-3 3-3 3 1.346 3 3-1.346 3-3 3zm-1 1.899c.323.066.658.101 1 .101s.677-.035 1-.101v3.105c0 2.755 2.241 4.996 4.996 4.996h16.008c2.755 0 4.996-2.241 4.996-4.996v-3.105c.323.066.658.101 1 .101s.677-.035 1-.101v4.101c0 3.309-2.691 6-6 6h-18c-3.309 0-6-2.691-6-6zm29-1.899c-1.654 0-3-1.346-3-3s1.346-3 3-3 3 1.346 3 3-1.346 3-3 3zm-15-26h4v14h-4zm-24 11c0-.552.448-1 1-1h21v2h-20v10h4.101c-.066.323-.101.658-.101 1s.035.677.101 1h-5.101c-.552 0-1-.448-1-1zm46.946 30.936c-.448 2.355-2.513 4.064-4.911 4.064h-34.07c-2.397 0-4.463-1.709-4.911-4.064l-3.054-16.031v-.09c.314.113.648.185 1 .185h6.026c.279.369.606.695.974.974v5.026c0 4.411 3.589 8 8 8h18c4.411 0 8-3.589 8-8v-5.026c.369-.279.695-.606.974-.974h6.026c.352 0 .686-.072 1-.184v.09zm3.054-18.936c0 .552-.448 1-1 1h-5.101c.066-.323.101-.658.101-1s-.035-.677-.101-1h4.101v-6h2zm8-9h-4v-26h4z"/><path d="m46.017 56.188c-.089.47-.502.812-.982.812h-7.035v2h7.035c1.439 0 2.679-1.026 2.946-2.438l1.023-5.374-1.965-.375z"/><path d="m34 57h2v2h-2z"/><path d="m4 18c1.654 0 3-1.346 3-3 0-.595-.179-1.147-.479-1.613l3.541-4.552c.297.099.608.165.938.165.673 0 1.288-.23 1.788-.606l4.312 2.875c-.059.235-.1.478-.1.731 0 1.654 1.346 3 3 3s3-1.346 3-3c0-.296-.056-.576-.137-.847l6.44-4.683c.483.333 1.067.53 1.697.53 1.654 0 3-1.346 3-3s-1.346-3-3-3-3 1.346-3 3c0 .296.056.576.136.846l-6.44 4.684c-.483-.333-1.066-.53-1.696-.53-.673 0-1.288.231-1.789.606l-4.312-2.875c.06-.235.101-.477.101-.731 0-1.654-1.346-3-3-3s-3 1.346-3 3c0 .595.179 1.146.479 1.613l-3.541 4.552c-.297-.099-.609-.165-.938-.165-1.654 0-3 1.346-3 3s1.346 3 3 3zm27-15c.552 0 1 .448 1 1s-.448 1-1 1-1-.448-1-1 .448-1 1-1zm-11 8c.552 0 1 .448 1 1s-.448 1-1 1-1-.448-1-1 .448-1 1-1zm-9-6c.552 0 1 .448 1 1s-.448 1-1 1-1-.448-1-1 .448-1 1-1zm-7 9c.552 0 1 .448 1 1s-.448 1-1 1-1-.448-1-1 .448-1 1-1z"/></svg>