<svg id="Layer_5" enable-background="new 0 0 64 64" height="512" viewBox="0 0 64 64" width="512" xmlns="http://www.w3.org/2000/svg"><g><g><g><path d="m16 32.57c0 .28-.08.56-.22.8l-5.27 8.77c-.31.53-.89.86-1.51.86s-1.2-.33-1.51-.86l-5.27-8.77c-.14-.24-.22-.52-.22-.8 0-.87.7-1.57 1.57-1.57h2.43v-30h6v30h2.43c.87 0 1.57.7 1.57 1.57z" fill="#ff826e"/></g><g><path d="m62 32.57c0 .28-.08.56-.22.8l-5.27 8.77c-.31.53-.89.86-1.51.86s-1.2-.33-1.51-.86l-5.27-8.77c-.14-.24-.22-.52-.22-.8 0-.87.7-1.57 1.57-1.57h2.43v-30h6v30h2.43c.87 0 1.57.7 1.57 1.57z" fill="#ff826e"/></g><g><path d="m28.25 10.13 1.75 7.87h-2l-5-3c0-1.16.42-2.22 1.12-3.05s1.69-1.42 2.83-1.61z" fill="#b4dd7f"/></g><g><path d="m41 15-5 3h-2l1.75-7.87 1.3.21c1.14.19 2.13.78 2.83 1.61s1.12 1.89 1.12 3.05z" fill="#b4dd7f"/></g><g><path d="m34 18h2 1c1.1 0 2 .9 2 2 0 .55-.22 1.05-.59 1.41-.36.37-.86.59-1.41.59h-1-8-1c-1.1 0-2-.9-2-2 0-.55.22-1.05.59-1.41.36-.37.86-.59 1.41-.59h1 2z" fill="#e6e9ed"/></g><g><path d="m36 9-.25 1.13-1.75 7.87h-4l-1.75-7.87-.25-1.13s2-2 4-2 4 2 4 2z" fill="#a0d468"/></g><g><path d="m45 36.99v.01c0 3.59-1.46 6.84-3.81 9.19s-5.6 3.81-9.19 3.81c-7.18 0-13-5.82-13-13v-.01c0-3.21 1.19-6.31 3.34-8.7l5.66-6.29h8l5.66 6.29c2.15 2.39 3.34 5.49 3.34 8.7z" fill="#b4dd7f"/></g><g><path d="m34 56h4 2c1.1 0 2 .9 2 2v2c0 1.1-.9 2-2 2h-16c-1.1 0-2-.9-2-2v-2c0-1.1.9-2 2-2h2 4z" fill="#ffc729"/></g><g><path d="m34 50h4 2c1.1 0 2 .9 2 2v2c0 1.1-.9 2-2 2h-2-4-4-4-2c-1.1 0-2-.9-2-2v-2c0-1.1.9-2 2-2h2 4 2z" fill="#fcd770"/></g></g><g><path d="m36 32.905c0-1.84-1.284-3.378-3-3.789v-2.116h-2v2.117c-1.716.411-3 1.948-3 3.789 0 1.684 1.073 3.173 2.671 3.705l2.025.676c.781.26 1.304.986 1.304 1.808 0 1.051-.854 1.905-1.905 1.905h-.189c-1.052 0-1.906-.854-1.906-1.905v-1.095h-2v1.095c0 1.84 1.284 3.378 3 3.789v2.116h2v-2.117c1.716-.411 3-1.948 3-3.789 0-1.684-1.073-3.173-2.671-3.705l-2.025-.676c-.781-.26-1.304-.986-1.304-1.808 0-1.051.854-1.905 1.905-1.905h.189c1.052 0 1.906.854 1.906 1.905v.095z"/><path d="m46 36.988c0-3.465-1.276-6.791-3.594-9.365l-4.344-4.827c1.13-.43 1.938-1.517 1.938-2.796 0-1.018-.512-1.917-1.29-2.459l3.29-1.975v-.566c0-2.809-2.011-5.183-4.78-5.644l-.264-.044.14-.632-.389-.388c-.234-.233-2.36-2.292-4.707-2.292s-4.473 2.059-4.707 2.293l-.389.388.14.632-.263.044c-2.77.46-4.781 2.834-4.781 5.643v.566l3.29 1.974c-.778.543-1.29 1.442-1.29 2.46 0 1.279.808 2.366 1.938 2.796l-4.344 4.827c-2.318 2.574-3.594 5.9-3.594 9.377 0 5.096 2.745 9.551 6.826 12h-.826c-1.654 0-3 1.346-3 3v2c0 .771.301 1.468.78 2-.48.532-.78 1.229-.78 2v2c0 1.654 1.346 3 3 3h16c1.654 0 3-1.346 3-3v-2c0-.771-.301-1.468-.78-2 .48-.532.78-1.229.78-2v-2c0-1.654-1.346-3-3-3h-.827c4.081-2.45 6.827-6.908 6.827-12.012zm-9-17.988c.552 0 1 .448 1 1s-.448 1-1 1h-10c-.552 0-1-.448-1-1s.448-1 1-1zm-.109-7.671c1.62.27 2.841 1.545 3.07 3.128l-4.238 2.543h-.476l1.274-5.733zm-4.891-3.329c1.035 0 2.221.794 2.897 1.353l-1.699 7.647h-2.395l-1.7-7.647c.676-.559 1.862-1.353 2.897-1.353zm-4.89 3.329.369-.062 1.274 5.733h-.476l-4.238-2.543c.23-1.583 1.45-2.858 3.071-3.128zm13.89 48.671c0 .552-.448 1-1 1h-16c-.552 0-1-.448-1-1v-2c0-.552.448-1 1-1h1v2h2v-2h2v2h2v-2h2v2h2v-2h2v2h2v-2h1c.552 0 1 .448 1 1zm0-8v2c0 .552-.448 1-1 1h-16c-.552 0-1-.448-1-1v-2c0-.552.448-1 1-1h1v2h2v-2h2v2h2v-2h2v2h2v-2h2v2h2v-2h1c.552 0 1 .448 1 1zm-9-3c-6.617 0-12-5.383-12-12.012 0-2.97 1.094-5.82 3.08-8.027l5.365-5.961h7.11l5.365 5.961c1.986 2.207 3.08 5.058 3.08 8.039 0 6.617-5.383 12-12 12z"/><path d="m60.434 30h-1.434v-29h-2v31h3.434c.312 0 .566.254.566.566 0 .103-.027.202-.081.291l-5.262 8.771c-.275.459-1.039.459-1.314 0l-5.263-8.771c-.053-.088-.08-.188-.08-.29 0-.313.254-.567.566-.567h3.434v-19h-2v17h-1.434c-1.415 0-2.566 1.151-2.566 2.566 0 .466.127.923.366 1.32l5.262 8.771c.497.828 1.406 1.343 2.372 1.343s1.875-.515 2.372-1.343l5.261-8.77c.24-.398.367-.855.367-1.321 0-1.415-1.151-2.566-2.566-2.566z"/><path d="m51 9h2v2h-2z"/><path d="m51 1h2v2h-2z"/><path d="m51 5h2v2h-2z"/><path d="m14.434 30h-1.434v-17h-2v19h3.434c.312 0 .566.254.566.566 0 .103-.027.202-.081.291l-5.262 8.771c-.275.459-1.039.459-1.314 0l-5.263-8.772c-.053-.087-.08-.187-.08-.29 0-.312.254-.566.566-.566h3.434v-31h-2v29h-1.434c-1.415 0-2.566 1.151-2.566 2.566 0 .466.127.923.366 1.32l5.262 8.771c.497.828 1.406 1.343 2.372 1.343s1.875-.515 2.372-1.343l5.261-8.77c.24-.398.367-.855.367-1.321 0-1.415-1.151-2.566-2.566-2.566z"/><path d="m11 9h2v2h-2z"/><path d="m11 1h2v2h-2z"/><path d="m11 5h2v2h-2z"/></g></g></svg>