<svg id="Layer_5" enable-background="new 0 0 64 64" height="512" viewBox="0 0 64 64" width="512" xmlns="http://www.w3.org/2000/svg"><g><g><g><path d="m55 12.82c0 .12-.01.24-.04.36l-1.7 8.52c-.15.75-.82 1.3-1.59 1.3-.43 0-.84-.17-1.14-.47l-2.03-2.03-16.5 16.5-7-7-13 13-3-3 16-16 7 7 13.5-13.5-2.03-2.03c-.3-.3-.47-.71-.47-1.14 0-.77.55-1.44 1.3-1.59l8.52-1.7c.12-.03.24-.04.36-.04 1.01 0 1.82.81 1.82 1.82z" fill="#ff826e"/></g><g><path d="m58 36h4c0 2.21-.9 4.21-2.34 5.66-1.45 1.44-3.45 2.34-5.66 2.34h-4c0-2.21.9-4.21 2.34-5.66 1.45-1.44 3.45-2.34 5.66-2.34z" fill="#a0d468"/></g><g><path d="m58 54h4c0 2.21-.9 4.21-2.34 5.66-1.45 1.44-3.45 2.34-5.66 2.34h-4c0-2.21.9-4.21 2.34-5.66 1.45-1.44 3.45-2.34 5.66-2.34z" fill="#b4dd7f"/></g><g><path d="m50 48h-4c-1.46 0-2.82-.39-4-1.07v-.93c0-1.1-.9-2-2-2h-.93c-.68-1.18-1.07-2.54-1.07-4h4c2.21 0 4.21.9 5.66 2.34 1.44 1.45 2.34 3.45 2.34 5.66z" fill="#b4dd7f"/></g><g><path d="m20 56c1.1 0 2 .9 2 2v2c0 1.1-.9 2-2 2h-16c-1.1 0-2-.9-2-2v-2c0-1.1.9-2 2-2h2 4 4 4z" fill="#ffc729"/></g><g><path d="m40 50c1.1 0 2 .9 2 2v2c0 1.1-.9 2-2 2h-2-4-4-4-2c-1.1 0-2-.9-2-2v-2c0-1.1.9-2 2-2h2 4 4 4z" fill="#ffc729"/></g><g><path d="m18 50h2c1.1 0 2 .9 2 2v2c0 1.1-.9 2-2 2h-2-4-4-4-2c-1.1 0-2-.9-2-2v-2c0-1.1.9-2 2-2h2 4 4z" fill="#fcd770"/></g><g><path d="m40 56c1.1 0 2 .9 2 2v2c0 1.1-.9 2-2 2h-16c-1.1 0-2-.9-2-2v-2c0-1.1.9-2 2-2h2 4 4 4z" fill="#fcd770"/></g><g><path d="m42 46.93v1.07c0 1.1-.9 2-2 2h-2-4-4-4-2c-1.1 0-2-.9-2-2v-2c0-1.1.9-2 2-2h2 4 4 4 1.07.93c1.1 0 2 .9 2 2z" fill="#fcd770"/></g></g><g><path d="m12 18v1.095c0 1.84 1.284 3.378 3 3.789v2.116h2v-2.117c1.716-.411 3-1.948 3-3.789 0-1.684-1.073-3.173-2.67-3.705l-2.026-.676c-.781-.259-1.304-.986-1.304-1.808 0-1.051.855-1.905 1.906-1.905h.188c1.051 0 1.906.854 1.906 1.905v.095l2-.095c0-1.84-1.284-3.378-3-3.789v-2.116h-2v2.117c-1.716.411-3 1.948-3 3.789 0 1.684 1.073 3.173 2.67 3.705l2.026.676c.78.26 1.303.987 1.303 1.809.001 1.05-.854 1.904-1.905 1.904h-.188c-1.051 0-1.906-.854-1.906-1.905v-1.095z"/><path d="m9.57 29.556c.698.331 1.422.609 2.153.825l.567-1.918c-.631-.187-1.258-.427-1.862-.714z"/><path d="m7.427 28.311 1.145-1.641c-3.489-2.434-5.572-6.422-5.572-10.67 0-7.168 5.832-13 13-13 6.437 0 11.781 4.707 12.808 10.856l-2.208-1.656-1.2 1.6 4.6 3.45 4.6-3.45-1.2-1.6-2.534 1.9c-.938-7.375-7.24-13.1-14.866-13.1-8.271 0-15 6.729-15 15 0 4.901 2.403 9.503 6.427 12.311z"/><path d="m44.086 17.5-12.086 12.086-7-7-17.414 17.414 4.414 4.414 13-13 7 7 16.5-16.5 1.318 1.318c.488.489 1.163.768 1.853.768 1.245 0 2.325-.886 2.57-2.106l1.704-8.521c.037-.182.055-.368.055-.554 0-1.554-1.265-2.819-2.82-2.819-.185 0-.37.019-.553.055l-8.52 1.704c-1.221.244-2.107 1.325-2.107 2.57 0 .7.272 1.357.768 1.853zm.413-3.78 8.52-1.704c.497-.098.981.297.981.803 0 .055-.005.108-.016.161l-1.704 8.521c-.09.45-.723.642-1.048.317l-2.732-2.732-16.5 16.5-7-7-13 13-1.586-1.586 14.586-14.586 7 7 14.914-14.914-2.732-2.732c-.116-.116-.182-.276-.182-.439 0-.295.21-.552.499-.609z"/><path d="m51 48v-3h3c4.962 0 9-4.037 9-9v-1h-5c-4.461 0-8.164 3.266-8.869 7.53-1.647-2.141-4.227-3.53-7.131-3.53h-5v1c0 1.028.194 2.039.533 3h-13.533c-1.654 0-3 1.346-3 3v2c0 .475.121.919.319 1.319-.4-.198-.844-.319-1.319-.319h-16c-1.654 0-3 1.346-3 3v2c0 .771.301 1.468.78 2-.479.532-.78 1.229-.78 2v2c0 1.654 1.346 3 3 3h16c.771 0 1.468-.301 2-.78.532.48 1.229.78 2 .78h16c1.654 0 3-1.346 3-3v-2c0-.771-.301-1.468-.78-2 .48-.532.78-1.229.78-2v-2c0-.771-.301-1.468-.78-2 .384-.426.645-.958.735-1.55.974.35 2 .55 3.046.55h3v13 1h5c4.962 0 9-4.037 9-9v-1h-5c-2.826 0-5.349 1.312-7 3.356v-7.356-1zm7 7h2.929c-.487 3.388-3.408 6-6.929 6h-2.929c.487-3.388 3.408-6 6.929-6zm0-18h2.929c-.487 3.388-3.408 6-6.929 6h-2.929c.487-3.388 3.408-6 6.929-6zm-35 9c0-.552.449-1 1-1h1v2h2v-2h2v2h2v-2h2v2h2v-2h2v2h2v-2h1c.551 0 1 .448 1 1v2c0 .552-.449 1-1 1h-16c-.551 0-1-.448-1-1zm18 6v2c0 .552-.449 1-1 1h-16c-.551 0-1-.448-1-1v-2c0-.552.449-1 1-1h1v2h2v-2h2v2h2v-2h2v2h2v-2h2v2h2v-2h1c.551 0 1 .448 1 1zm-38 0c0-.552.449-1 1-1h1v2h2v-2h2v2h2v-2h2v2h2v-2h2v2h2v-2h1c.551 0 1 .448 1 1v2c0 .552-.449 1-1 1h-16c-.551 0-1-.448-1-1zm17 9h-16c-.551 0-1-.448-1-1v-2c0-.552.449-1 1-1h1v2h2v-2h2v2h2v-2h2v2h2v-2h2v2h2v-2h1c.551 0 1 .448 1 1v2c0 .552-.449 1-1 1zm21-1c0 .552-.449 1-1 1h-16c-.551 0-1-.448-1-1v-2c0-.552.449-1 1-1h1v2h2v-2h2v2h2v-2h2v2h2v-2h2v2h2v-2h1c.551 0 1 .448 1 1zm5-13c-1.044 0-2.066-.245-3-.689v-.311c0-1.654-1.346-3-3-3h-.321c-.3-.632-.507-1.306-.607-2h2.928c3.521 0 6.442 2.612 6.929 6z"/></g></g></svg>